<mxfile host="Electron" agent="Mozilla/5.0 (Macintosh; Intel Mac OS X 10_15_7) AppleWebKit/537.36 (KHTML, like Gecko) draw.io/26.1.1 Chrome/132.0.6834.210 Electron/34.3.3 Safari/537.36" version="26.1.1">
  <diagram name="Page-1" id="PK3Sqa3jDiUFFaNyUMIt">
    <mxGraphModel dx="1114" dy="1399" grid="1" gridSize="10" guides="1" tooltips="1" connect="1" arrows="1" fold="1" page="0" pageScale="1" pageWidth="1169" pageHeight="827" background="none" math="0" shadow="0">
      <root>
        <mxCell id="0" />
        <mxCell id="1" parent="0" />
        <mxCell id="Pa02zWd7ZBGtwD6BYwx0-21" value="Groups" parent="0" />
        <mxCell id="Pa02zWd7ZBGtwD6BYwx0-22" value="Region" style="points=[[0,0],[0.25,0],[0.5,0],[0.75,0],[1,0],[1,0.25],[1,0.5],[1,0.75],[1,1],[0.75,1],[0.5,1],[0.25,1],[0,1],[0,0.75],[0,0.5],[0,0.25]];outlineConnect=0;gradientColor=none;html=1;whiteSpace=wrap;fontSize=12;fontStyle=0;container=1;pointerEvents=0;collapsible=0;recursiveResize=0;shape=mxgraph.aws4.group;grIcon=mxgraph.aws4.group_region;strokeColor=#00A4A6;fillColor=none;verticalAlign=top;align=left;spacingLeft=30;fontColor=#147EBA;dashed=1;" parent="Pa02zWd7ZBGtwD6BYwx0-21" vertex="1">
          <mxGeometry x="140" y="-80" width="680" height="590" as="geometry" />
        </mxCell>
        <mxCell id="Pa02zWd7ZBGtwD6BYwx0-23" value="VPC" style="points=[[0,0],[0.25,0],[0.5,0],[0.75,0],[1,0],[1,0.25],[1,0.5],[1,0.75],[1,1],[0.75,1],[0.5,1],[0.25,1],[0,1],[0,0.75],[0,0.5],[0,0.25]];outlineConnect=0;gradientColor=none;html=1;whiteSpace=wrap;fontSize=12;fontStyle=0;container=1;pointerEvents=0;collapsible=0;recursiveResize=0;shape=mxgraph.aws4.group;grIcon=mxgraph.aws4.group_vpc2;strokeColor=#8C4FFF;fillColor=none;verticalAlign=top;align=left;spacingLeft=30;fontColor=#AAB7B8;dashed=0;" parent="Pa02zWd7ZBGtwD6BYwx0-22" vertex="1">
          <mxGeometry x="20" y="90" width="640" height="480" as="geometry" />
        </mxCell>
        <mxCell id="Pa02zWd7ZBGtwD6BYwx0-24" value="Availability Zone A" style="fillColor=none;strokeColor=#147EBA;dashed=1;verticalAlign=top;fontStyle=0;fontColor=#147EBA;whiteSpace=wrap;html=1;" parent="Pa02zWd7ZBGtwD6BYwx0-23" vertex="1">
          <mxGeometry x="40" y="-30" width="140" height="496" as="geometry" />
        </mxCell>
        <mxCell id="Pa02zWd7ZBGtwD6BYwx0-25" value="Availability Zone B" style="fillColor=none;strokeColor=#147EBA;dashed=1;verticalAlign=top;fontStyle=0;fontColor=#147EBA;whiteSpace=wrap;html=1;" parent="Pa02zWd7ZBGtwD6BYwx0-23" vertex="1">
          <mxGeometry x="460" y="-30" width="140" height="500" as="geometry" />
        </mxCell>
        <mxCell id="Pa02zWd7ZBGtwD6BYwx0-39" value="&lt;div&gt;Web Tier&lt;br&gt;&lt;/div&gt;" style="dashed=1;verticalAlign=bottom;fontStyle=0;whiteSpace=wrap;html=1;" parent="Pa02zWd7ZBGtwD6BYwx0-23" vertex="1">
          <mxGeometry x="50" y="120" width="540" height="130" as="geometry" />
        </mxCell>
        <mxCell id="Pa02zWd7ZBGtwD6BYwx0-40" value="Database Tier" style="dashed=1;verticalAlign=bottom;fontStyle=0;whiteSpace=wrap;html=1;" parent="Pa02zWd7ZBGtwD6BYwx0-23" vertex="1">
          <mxGeometry x="50" y="320" width="540" height="130" as="geometry" />
        </mxCell>
        <mxCell id="Pa02zWd7ZBGtwD6BYwx0-34" value="Auto Scaling Group" style="sketch=0;points=[[0,0,0],[0.25,0,0],[0.5,0,0],[0.75,0,0],[1,0,0],[0,1,0],[0.25,1,0],[0.5,1,0],[0.75,1,0],[1,1,0],[0,0.25,0],[0,0.5,0],[0,0.75,0],[1,0.25,0],[1,0.5,0],[1,0.75,0]];outlineConnect=0;fontColor=#232F3E;fillColor=#ED7100;strokeColor=#ffffff;dashed=0;verticalLabelPosition=bottom;verticalAlign=top;align=center;html=1;fontSize=12;fontStyle=0;aspect=fixed;shape=mxgraph.aws4.resourceIcon;resIcon=mxgraph.aws4.auto_scaling2;" parent="Pa02zWd7ZBGtwD6BYwx0-23" vertex="1">
          <mxGeometry x="290" y="80" width="78" height="78" as="geometry" />
        </mxCell>
        <mxCell id="Pa02zWd7ZBGtwD6BYwx0-41" value="EC2" style="sketch=0;points=[[0,0,0],[0.25,0,0],[0.5,0,0],[0.75,0,0],[1,0,0],[0,1,0],[0.25,1,0],[0.5,1,0],[0.75,1,0],[1,1,0],[0,0.25,0],[0,0.5,0],[0,0.75,0],[1,0.25,0],[1,0.5,0],[1,0.75,0]];outlineConnect=0;fontColor=#232F3E;fillColor=#ED7100;strokeColor=#ffffff;dashed=0;verticalLabelPosition=bottom;verticalAlign=top;align=center;html=1;fontSize=12;fontStyle=0;aspect=fixed;shape=mxgraph.aws4.resourceIcon;resIcon=mxgraph.aws4.ec2;" parent="Pa02zWd7ZBGtwD6BYwx0-23" vertex="1">
          <mxGeometry x="70" y="100" width="78" height="78" as="geometry" />
        </mxCell>
        <mxCell id="Pa02zWd7ZBGtwD6BYwx0-42" value="EC2" style="sketch=0;points=[[0,0,0],[0.25,0,0],[0.5,0,0],[0.75,0,0],[1,0,0],[0,1,0],[0.25,1,0],[0.5,1,0],[0.75,1,0],[1,1,0],[0,0.25,0],[0,0.5,0],[0,0.75,0],[1,0.25,0],[1,0.5,0],[1,0.75,0]];outlineConnect=0;fontColor=#232F3E;fillColor=#ED7100;strokeColor=#ffffff;dashed=0;verticalLabelPosition=bottom;verticalAlign=top;align=center;html=1;fontSize=12;fontStyle=0;aspect=fixed;shape=mxgraph.aws4.resourceIcon;resIcon=mxgraph.aws4.ec2;" parent="Pa02zWd7ZBGtwD6BYwx0-23" vertex="1">
          <mxGeometry x="490" y="104" width="78" height="78" as="geometry" />
        </mxCell>
        <mxCell id="Pa02zWd7ZBGtwD6BYwx0-43" value="Primary RDS" style="sketch=0;points=[[0,0,0],[0.25,0,0],[0.5,0,0],[0.75,0,0],[1,0,0],[0,1,0],[0.25,1,0],[0.5,1,0],[0.75,1,0],[1,1,0],[0,0.25,0],[0,0.5,0],[0,0.75,0],[1,0.25,0],[1,0.5,0],[1,0.75,0]];outlineConnect=0;fontColor=#232F3E;fillColor=#C925D1;strokeColor=#ffffff;dashed=0;verticalLabelPosition=bottom;verticalAlign=top;align=center;html=1;fontSize=12;fontStyle=0;aspect=fixed;shape=mxgraph.aws4.resourceIcon;resIcon=mxgraph.aws4.rds;" parent="Pa02zWd7ZBGtwD6BYwx0-23" vertex="1">
          <mxGeometry x="70" y="296" width="78" height="78" as="geometry" />
        </mxCell>
        <mxCell id="Pa02zWd7ZBGtwD6BYwx0-44" value="Read Replica" style="sketch=0;points=[[0,0,0],[0.25,0,0],[0.5,0,0],[0.75,0,0],[1,0,0],[0,1,0],[0.25,1,0],[0.5,1,0],[0.75,1,0],[1,1,0],[0,0.25,0],[0,0.5,0],[0,0.75,0],[1,0.25,0],[1,0.5,0],[1,0.75,0]];outlineConnect=0;fontColor=#232F3E;fillColor=#C925D1;strokeColor=#ffffff;dashed=0;verticalLabelPosition=bottom;verticalAlign=top;align=center;html=1;fontSize=12;fontStyle=0;aspect=fixed;shape=mxgraph.aws4.resourceIcon;resIcon=mxgraph.aws4.rds;" parent="Pa02zWd7ZBGtwD6BYwx0-23" vertex="1">
          <mxGeometry x="490" y="300" width="78" height="78" as="geometry" />
        </mxCell>
        <mxCell id="Pa02zWd7ZBGtwD6BYwx0-45" value="Elastic Load Balancer" style="sketch=0;points=[[0,0,0],[0.25,0,0],[0.5,0,0],[0.75,0,0],[1,0,0],[0,1,0],[0.25,1,0],[0.5,1,0],[0.75,1,0],[1,1,0],[0,0.25,0],[0,0.5,0],[0,0.75,0],[1,0.25,0],[1,0.5,0],[1,0.75,0]];outlineConnect=0;fontColor=#232F3E;fillColor=#8C4FFF;strokeColor=#ffffff;dashed=0;verticalLabelPosition=bottom;verticalAlign=top;align=center;html=1;fontSize=12;fontStyle=0;aspect=fixed;shape=mxgraph.aws4.resourceIcon;resIcon=mxgraph.aws4.elastic_load_balancing;" parent="Pa02zWd7ZBGtwD6BYwx0-23" vertex="1">
          <mxGeometry x="290" y="-40" width="78" height="78" as="geometry" />
        </mxCell>
        <mxCell id="Pa02zWd7ZBGtwD6BYwx0-6" value="Services" parent="0" />
        <mxCell id="Pa02zWd7ZBGtwD6BYwx0-36" value="" style="sketch=0;outlineConnect=0;fontColor=#232F3E;gradientColor=none;fillColor=#232F3D;strokeColor=none;dashed=0;verticalLabelPosition=bottom;verticalAlign=top;align=center;html=1;fontSize=12;fontStyle=0;aspect=fixed;pointerEvents=1;shape=mxgraph.aws4.users;" parent="Pa02zWd7ZBGtwD6BYwx0-6" vertex="1">
          <mxGeometry x="320" y="-140" width="48" height="48" as="geometry" />
        </mxCell>
        <mxCell id="Pa02zWd7ZBGtwD6BYwx0-37" style="edgeStyle=orthogonalEdgeStyle;rounded=0;orthogonalLoop=1;jettySize=auto;html=1;entryX=0.5;entryY=0;entryDx=0;entryDy=0;entryPerimeter=0;" parent="Pa02zWd7ZBGtwD6BYwx0-6" source="Pa02zWd7ZBGtwD6BYwx0-36" target="Pa02zWd7ZBGtwD6BYwx0-45" edge="1">
          <mxGeometry relative="1" as="geometry">
            <mxPoint x="529" y="-40" as="targetPoint" />
          </mxGeometry>
        </mxCell>
      </root>
    </mxGraphModel>
  </diagram>
</mxfile>
